<svg width="48" height="48" viewBox="0 0 48 48" fill="none" xmlns="http://www.w3.org/2000/svg">
<path d="M23.7788 12.0244H24.1985C24.2833 12.048 24.3723 12.0532 24.4593 12.0394C24.6157 12.042 24.772 12.049 24.9281 12.0604C25.4658 12.1 26.0002 12.1769 26.5272 12.2908C27.868 12.5736 29.1483 13.0908 30.3094 13.8185C32.7638 15.3267 34.5892 17.6724 35.4484 20.422C35.6673 21.107 35.8201 21.8114 35.9046 22.5256C35.9452 22.8023 35.9668 23.0815 35.9691 23.3613C35.962 23.4371 35.9617 23.5134 35.9682 23.5893C35.9617 23.6586 35.969 23.7285 35.9896 23.795V24.2147C35.9931 24.3177 35.977 24.4201 35.9754 24.5224C35.9656 24.9151 35.9315 25.3069 35.8732 25.6954C35.742 26.6253 35.4998 27.5362 35.1517 28.4084C34.3136 30.5135 32.8972 32.3386 31.0661 33.673C29.235 35.0075 27.0638 35.7968 24.8032 35.9498C24.0552 35.9986 23.3043 35.9786 22.56 35.8901C21.9849 35.823 21.4158 35.7125 20.8574 35.5596C18.6765 34.9736 16.7087 33.776 15.1862 32.1081C13.3686 30.1596 12.2642 27.6531 12.053 24.9969C11.9997 24.3896 11.9958 23.779 12.0413 23.1711C12.0933 22.4405 12.2106 21.716 12.3918 21.0064C12.8761 19.1512 13.7968 17.4386 15.0772 16.0114C16.3576 14.5841 17.9606 13.4835 19.7525 12.8014C20.6118 12.4764 21.5054 12.2507 22.4159 12.1285C22.8681 12.0708 23.323 12.036 23.7788 12.0244V12.0244ZM24.0269 34.227C24.2729 34.2221 24.5189 34.2312 24.7653 34.2115C25.104 34.1846 25.4406 34.1468 25.7752 34.0894C26.5077 33.9639 27.2237 33.7561 27.9096 33.47C28.0017 33.4316 28.0032 33.4269 27.9858 33.3277C27.9186 32.9441 27.8419 32.5625 27.761 32.1815C27.5776 31.3182 27.3631 30.4625 27.1248 29.613C26.8703 28.7056 26.5874 27.8069 26.2761 26.9172C26.1424 26.5372 26.0061 26.1581 25.8609 25.7823C25.8226 25.6831 25.8119 25.6794 25.7137 25.7104C25.6978 25.7154 25.6822 25.7211 25.6665 25.7266C25.3677 25.8307 25.0733 25.9461 24.7809 26.0669C24.156 26.325 23.5477 26.6217 22.9597 26.9553C22.3278 27.3131 21.7223 27.7156 21.1478 28.1596C20.7394 28.4751 20.3481 28.812 19.9754 29.1689C19.5372 29.5878 19.1285 30.0364 18.7521 30.5115C18.3821 30.9749 18.052 31.4687 17.7654 31.9879C17.7168 32.077 17.717 32.0835 17.7972 32.143C17.9148 32.2303 18.0325 32.3177 18.1528 32.4012C18.6748 32.7652 19.2295 33.0799 19.8097 33.3414C20.214 33.5225 20.6295 33.6774 21.0537 33.8049C21.5607 33.9576 22.079 34.0701 22.6037 34.1412C22.9231 34.1869 23.2448 34.2153 23.5673 34.2263C23.7204 34.2304 23.8737 34.227 24.0269 34.227V34.227ZM14.4325 23.697C14.2827 23.697 14.1328 23.697 13.983 23.697C13.933 23.697 13.8831 23.6975 13.8331 23.6973C13.7881 23.6971 13.7671 23.7187 13.7655 23.7641C13.7564 23.8501 13.7527 23.9365 13.7546 24.0229C13.7753 24.2419 13.764 24.4616 13.7803 24.681C13.808 25.0725 13.8569 25.4622 13.9269 25.8484C14.118 26.8917 14.4712 27.8986 14.9737 28.8326C15.322 29.4775 15.7365 30.0843 16.2107 30.6432C16.2537 30.694 16.2968 30.7448 16.3418 30.7938C16.3906 30.8472 16.3977 30.846 16.4368 30.7894L16.4476 30.7726C16.7071 30.3536 16.9886 29.9487 17.2909 29.5596C17.6486 29.0914 18.0307 28.6424 18.4356 28.2144C18.7169 27.9169 19.0079 27.6289 19.3087 27.3505C19.7563 26.9373 20.226 26.5486 20.7156 26.1862C21.3712 25.7002 22.0663 25.2699 22.7937 24.8998C23.381 24.6 23.9904 24.3453 24.6165 24.1381C24.7587 24.0911 24.9022 24.0479 25.0448 24.002C25.1173 23.9786 25.1201 23.9729 25.0925 23.9031C25.073 23.8536 25.0511 23.805 25.0286 23.7567C24.9008 23.4821 24.7752 23.2064 24.6434 22.9338C24.5434 22.727 24.4344 22.5247 24.3312 22.3195C24.3062 22.2698 24.2755 22.2479 24.22 22.2697C24.1917 22.2794 24.1629 22.2876 24.1337 22.2943C23.8642 22.369 23.5957 22.4473 23.3252 22.5178C22.51 22.73 21.688 22.9119 20.8593 23.0634C20.3093 23.1634 19.7579 23.2547 19.2042 23.3303C18.6607 23.4046 18.1159 23.469 17.5694 23.5204C17.2218 23.5532 16.874 23.5833 16.526 23.6107C16.1814 23.6384 15.8359 23.6603 15.4903 23.6704C15.1379 23.6807 14.7856 23.7082 14.4325 23.6969V23.697ZM14.4945 21.9172C14.8473 21.9165 15.1995 21.8985 15.5518 21.8807C15.7844 21.869 16.0167 21.8547 16.249 21.8405C16.5877 21.8199 16.9256 21.7914 17.2632 21.7584C17.5512 21.7302 17.8396 21.7062 18.1268 21.6714C18.5065 21.6254 18.8852 21.5712 19.2641 21.5195C19.8511 21.4395 20.4347 21.338 21.0165 21.227C21.7819 21.081 22.5417 20.9099 23.2959 20.7136C23.3281 20.7052 23.3605 20.6971 23.3923 20.6873C23.4294 20.6759 23.4374 20.6519 23.419 20.6182C23.411 20.6036 23.4039 20.5885 23.3956 20.574C23.2429 20.3086 23.0924 20.0418 22.9367 19.778C22.4069 18.8804 21.8556 17.9962 21.2827 17.1254C20.7783 16.357 20.258 15.5995 19.7221 14.8527C19.6628 14.7701 19.6581 14.7676 19.5675 14.8072C19.3658 14.8952 19.1748 15.004 18.9828 15.1108C18.2416 15.5271 17.5551 16.0339 16.9391 16.6197C16.6443 16.8993 16.3671 17.1969 16.109 17.5107C15.6199 18.101 15.1985 18.7443 14.8527 19.4285C14.6501 19.8299 14.4743 20.2443 14.3267 20.6691C14.196 21.0467 14.0873 21.4317 14.0012 21.8219C13.9823 21.9062 13.9893 21.9157 14.0749 21.9167C14.2147 21.9185 14.3546 21.9172 14.4945 21.9172H14.4945ZM24.005 13.7847C23.8313 13.772 23.6592 13.8007 23.4862 13.8036C23.3566 13.8058 23.2268 13.8146 23.0978 13.8273C22.8032 13.8564 22.5092 13.8924 22.2178 13.9455C22.041 13.9777 21.8648 14.013 21.6892 14.0513C21.6203 14.0662 21.617 14.0799 21.6577 14.1379C21.7151 14.2197 21.7751 14.2996 21.8338 14.3804C22.6138 15.4526 23.3462 16.5567 24.0461 17.6826C24.4169 18.2792 24.7743 18.8839 25.1181 19.4966C25.2077 19.6563 25.2963 19.8165 25.3862 19.976C25.4237 20.0424 25.4351 20.046 25.506 20.0243C25.5187 20.0204 25.5313 20.016 25.5437 20.0112C25.9664 19.8481 26.3824 19.6691 26.7891 19.4697C27.2377 19.25 27.6744 19.0067 28.0973 18.7409C28.7446 18.3371 29.3513 17.8715 29.9089 17.3508C30.1946 17.0857 30.4585 16.7981 30.6982 16.4908C30.7972 16.3622 30.7976 16.3611 30.6714 16.2543C30.273 15.9156 29.8505 15.6064 29.4071 15.329C28.788 14.9426 28.1287 14.6246 27.4409 14.3805C26.7629 14.1394 26.0614 13.9705 25.3479 13.8767C24.9021 13.823 24.4539 13.7923 24.005 13.7846L24.005 13.7847ZM34.246 23.7496C34.2482 23.6577 34.2441 23.5658 34.2339 23.4745C34.2289 23.2683 34.213 23.0625 34.1861 22.858C34.129 22.3754 34.0386 21.8974 33.9157 21.4273C33.6846 20.547 33.336 19.7018 32.8793 18.9145C32.6168 18.4583 32.3178 18.0242 31.9851 17.6164C31.9326 17.5524 31.9251 17.5522 31.875 17.6164C31.7499 17.7765 31.618 17.9307 31.4792 18.079C31.0996 18.4854 30.6927 18.8655 30.2614 19.2166C29.4524 19.8695 28.5795 20.4389 27.6559 20.916C27.2156 21.145 26.7661 21.3542 26.3072 21.5436C26.2192 21.5799 26.2163 21.5872 26.2585 21.6765C26.3453 21.86 26.4355 22.042 26.5206 22.2264C26.6364 22.4772 26.7502 22.7289 26.8621 22.9815C26.9393 23.1548 27.0149 23.3288 27.0872 23.5042C27.0933 23.5285 27.1085 23.5495 27.1297 23.5628C27.1509 23.5761 27.1764 23.5807 27.201 23.5756C27.2174 23.5734 27.2343 23.5744 27.2508 23.5723C27.4553 23.5463 27.6605 23.5275 27.8661 23.511C28.2143 23.483 28.5626 23.4572 28.912 23.4553C29.5775 23.4518 30.243 23.4426 30.908 23.4913C31.2397 23.5156 31.5711 23.5394 31.9022 23.5711C32.1704 23.5968 32.4382 23.626 32.7052 23.6614C33.1603 23.7217 33.614 23.7914 34.0654 23.8761C34.1202 23.8864 34.1855 23.9244 34.2289 23.893C34.2802 23.8558 34.2394 23.7807 34.246 23.7496H34.246ZM29.8628 25.0375C29.6151 25.0221 29.3662 25.0505 29.1168 25.0555C28.9839 25.0581 28.8508 25.0663 28.7184 25.0786C28.437 25.1048 28.156 25.1359 27.876 25.1744C27.7316 25.1943 27.7297 25.1951 27.78 25.3329C28.0061 25.9522 28.2146 26.5775 28.4117 27.2066C28.7363 28.2426 29.0239 29.2888 29.2745 30.3451C29.4329 31.0157 29.5791 31.6886 29.6968 32.3677C29.7148 32.4712 29.7294 32.4788 29.8138 32.4204C30.2392 32.1281 30.642 31.8041 31.0186 31.4511C31.3661 31.1254 31.6905 30.776 31.9895 30.4053C32.506 29.7643 32.9431 29.0634 33.2915 28.3176C33.5784 27.7015 33.8025 27.058 33.9605 26.397C34.014 26.1736 34.0629 25.9493 34.0956 25.7217C34.1078 25.6373 34.1075 25.6372 34.0239 25.6115L34.0047 25.606C33.4416 25.4439 32.8687 25.3183 32.2895 25.2298C31.7673 25.1461 31.2412 25.0893 30.7131 25.0598C30.4303 25.0367 30.1464 25.0293 29.8628 25.0374V25.0375Z" fill="#00D970"/>
</svg>
