<svg width="68" height="70" viewBox="0 0 68 70" fill="none" xmlns="http://www.w3.org/2000/svg">
<g filter="url(#filter0_bd_542_214)">
<path d="M43.9999 37.0509H39.901C39.901 36.9656 39.901 36.8817 39.901 36.7978C39.9013 34.6159 39.9165 32.4337 39.8923 30.252C39.8901 29.6415 39.8184 29.0331 39.6786 28.4388C39.5984 28.0043 39.3599 27.615 39.0092 27.3461C38.6586 27.0773 38.2208 26.948 37.7804 26.9833C37.4485 26.9469 37.1127 26.9817 36.7954 27.0853C36.478 27.1888 36.1864 27.3589 35.9399 27.584C35.6934 27.8092 35.4978 28.0842 35.3659 28.3909C35.2341 28.6976 35.1691 29.0289 35.1754 29.3626C35.106 30.0484 35.1095 30.7431 35.1064 31.4338C35.0984 33.2254 35.1051 35.0171 35.1059 36.8088C35.1059 36.8784 35.1059 36.9479 35.1059 37.0388H31.0864V23.666H35.0988V25.3829C35.3259 25.0984 35.5679 24.8259 35.8236 24.5667C36.5069 23.9504 37.3678 23.5664 38.2829 23.4697C39.1031 23.365 39.9355 23.4096 40.7399 23.6013C41.4397 23.7469 42.0834 24.0893 42.5955 24.588C43.1075 25.0868 43.4667 25.7214 43.6306 26.4172C43.8842 27.3511 44.006 28.3159 43.9926 29.2836C44.0035 31.7759 43.9985 34.2684 43.9998 36.7607C43.9999 36.8477 43.9999 36.9347 43.9999 37.0509Z" fill="#00D970"/>
<path d="M28.4501 23.6714V37.0399H24.3193V23.6714H28.4501Z" fill="#00D970"/>
<path d="M26.4415 21.8238C25.7961 21.8204 25.1782 21.5629 24.7212 21.1072C24.2643 20.6515 24.0052 20.0342 24 19.3889C24.0024 18.7433 24.2596 18.1248 24.7156 17.6679C25.1716 17.2109 25.7896 16.9525 26.4351 16.9487C27.0805 16.9519 27.6985 17.2092 28.1555 17.6648C28.6125 18.1204 28.8717 18.7378 28.8768 19.3831C28.8729 20.0283 28.6152 20.646 28.1595 21.1028C27.7038 21.5595 27.0866 21.8185 26.4415 21.8238Z" fill="#00D970"/>
</g>
<defs>
<filter id="filter0_bd_542_214" x="-14" y="-13" width="96" height="96" filterUnits="userSpaceOnUse" color-interpolation-filters="sRGB">
<feFlood flood-opacity="0" result="BackgroundImageFix"/>
<feGaussianBlur in="BackgroundImage" stdDeviation="6"/>
<feComposite in2="SourceAlpha" operator="in" result="effect1_backgroundBlur_542_214"/>
<feColorMatrix in="SourceAlpha" type="matrix" values="0 0 0 0 0 0 0 0 0 0 0 0 0 0 0 0 0 0 127 0" result="hardAlpha"/>
<feOffset dy="8"/>
<feGaussianBlur stdDeviation="12"/>
<feComposite in2="hardAlpha" operator="out"/>
<feColorMatrix type="matrix" values="0 0 0 0 0 0 0 0 0 0 0 0 0 0 0 0 0 0 0.08 0"/>
<feBlend mode="normal" in2="effect1_backgroundBlur_542_214" result="effect2_dropShadow_542_214"/>
<feBlend mode="normal" in="SourceGraphic" in2="effect2_dropShadow_542_214" result="shape"/>
</filter>
</defs>
</svg>
