<svg width="48" height="48" viewBox="0 0 48 48" fill="none" xmlns="http://www.w3.org/2000/svg">
<path d="M12 29.8541V18.1423C12.039 17.8972 12.0647 17.6491 12.119 17.4075C12.345 16.1522 12.9334 14.9905 13.8115 14.0656C14.6896 13.1406 15.8191 12.4927 17.0609 12.2017C17.4108 12.1046 17.7779 12.0693 18.1369 12.0054H29.8487C29.9245 12.0194 29.9996 12.0383 30.0761 12.0467C30.7301 12.1064 31.3697 12.2749 31.9682 12.5452C33.1744 13.0409 34.2024 13.8898 34.9173 14.9804C35.6321 16.071 36.0003 17.3524 35.9735 18.6561C36.0234 22.2157 35.9882 25.7766 35.9841 29.3369C36.0035 30.6905 35.5921 32.0152 34.8094 33.1198C34.1964 34.0274 33.3646 34.7659 32.3908 35.2673C31.417 35.7687 30.3326 36.0168 29.2377 35.9886C25.7399 35.9977 22.2421 35.9968 18.7442 35.9857C18.2915 35.9932 17.8393 35.9524 17.3952 35.8641C16.1412 35.6407 14.9802 35.0544 14.0562 34.1777C13.1321 33.301 12.4856 32.1725 12.1967 30.9319C12.0993 30.5815 12.064 30.2138 12 29.8541ZM33.8592 24.0018C33.8592 22.2689 33.859 20.5359 33.8586 18.803C33.8715 18.256 33.7903 17.7108 33.6186 17.1913C33.3118 16.2772 32.7187 15.4862 31.9273 14.9354C31.1359 14.3846 30.1883 14.1032 29.2245 14.133C25.7352 14.1288 22.2458 14.1219 18.7566 14.1424C18.2268 14.1405 17.7 14.2216 17.1953 14.3828C16.2777 14.6799 15.4819 15.2679 14.9284 16.0579C14.3749 16.8478 14.0938 17.7965 14.1278 18.7605C14.1228 22.2498 14.1228 25.7392 14.1275 29.2285C14.1165 29.7678 14.199 30.3049 14.3715 30.8159C14.6766 31.7223 15.264 32.5071 16.0476 33.0553C16.8312 33.6035 17.7698 33.8862 18.7259 33.862C22.2386 33.8712 25.7513 33.8714 29.2641 33.8626C30.0016 33.8829 30.7325 33.7189 31.3907 33.3854C32.0488 33.0519 32.6133 32.5595 33.0331 31.9528C33.5972 31.1569 33.8874 30.1992 33.8598 29.2241C33.8576 27.4833 33.8574 25.7426 33.8592 24.0018H33.8592Z" fill="#00D970"/>
<path d="M30.174 24.0012C30.1664 25.6394 29.5113 27.2082 28.3518 28.3655C27.1922 29.5229 25.6222 30.1749 23.9839 30.1794C22.3456 30.1704 20.7773 29.514 19.621 28.3533C18.4647 27.1926 17.8143 25.6218 17.8116 23.9835C17.8218 22.3491 18.4764 20.7848 19.6331 19.6302C20.7899 18.4756 22.3555 17.824 23.9899 17.8169C25.6281 17.8231 27.1975 18.4767 28.3559 19.6351C29.5143 20.7936 30.1679 22.3629 30.174 24.0012V24.0012ZM23.9883 28.0468C25.0617 28.0467 26.0913 27.6209 26.8511 26.8627C27.6109 26.1045 28.0391 25.0759 28.0415 24.0025C28.0415 22.9291 27.6156 21.8995 26.8574 21.1396C26.0992 20.3798 25.0705 19.9517 23.9971 19.9494C22.9237 19.9493 21.894 20.3751 21.1342 21.1334C20.3743 21.8916 19.9464 22.9203 19.9441 23.9937C19.9441 25.0671 20.37 26.0967 21.1281 26.8566C21.8863 27.6164 22.9149 28.0444 23.9883 28.0468V28.0468Z" fill="#00D970"/>
<path d="M30.4675 16.0223C30.8777 16.0319 31.2677 16.2024 31.5532 16.4972C31.8388 16.7919 31.9969 17.1871 31.9935 17.5974C31.9888 17.8045 31.9431 18.0086 31.859 18.198C31.7749 18.3873 31.6541 18.5581 31.5036 18.7004C31.3531 18.8427 31.1758 18.9538 30.9821 19.0272C30.7883 19.1006 30.5819 19.1348 30.3749 19.1278C29.969 19.1109 29.5855 18.9371 29.3052 18.643C29.0249 18.349 28.8696 17.9577 28.8721 17.5514C28.8811 17.1372 29.0543 16.7434 29.3534 16.4567C29.6525 16.17 30.0532 16.0138 30.4675 16.0223V16.0223Z" fill="#00D970"/>
</svg>
