<svg width="48" height="48" viewBox="0 0 48 48" fill="none" xmlns="http://www.w3.org/2000/svg">
<path d="M33.9999 34.0509H29.901C29.901 33.9656 29.901 33.8817 29.901 33.7978C29.9014 31.6159 29.9166 29.4337 29.8924 27.252C29.8901 26.6415 29.8185 26.0331 29.6786 25.4388C29.5984 25.0043 29.3599 24.615 29.0093 24.3461C28.6587 24.0773 28.2209 23.948 27.7804 23.9833C27.4486 23.9469 27.1128 23.9817 26.7954 24.0853C26.4781 24.1888 26.1865 24.3589 25.94 24.584C25.6935 24.8092 25.4978 25.0842 25.366 25.3909C25.2342 25.6976 25.1692 26.0289 25.1754 26.3626C25.106 27.0484 25.1096 27.7431 25.1065 28.4338C25.0984 30.2254 25.1052 32.0171 25.1059 33.8088C25.1059 33.8784 25.1059 33.9479 25.1059 34.0388H21.0865V20.666H25.0988V22.3829C25.326 22.0984 25.5679 21.8259 25.8237 21.5667C26.507 20.9504 27.3679 20.5664 28.283 20.4697C29.1032 20.365 29.9356 20.4096 30.74 20.6013C31.4398 20.7469 32.0835 21.0893 32.5955 21.588C33.1076 22.0868 33.4667 22.7214 33.6307 23.4172C33.8842 24.3511 34.0061 25.3159 33.9927 26.2836C34.0035 28.7759 33.9985 31.2684 33.9999 33.7607C34 33.8477 33.9999 33.9347 33.9999 34.0509Z" fill="#00D970"/>
<path d="M18.45 20.6714V34.0399H14.3193V20.6714H18.45Z" fill="#00D970"/>
<path d="M16.4415 18.8238C15.7962 18.8204 15.1782 18.5629 14.7213 18.1072C14.2644 17.6515 14.0053 17.0342 14.0001 16.3889C14.0025 15.7433 14.2596 15.1248 14.7157 14.6679C15.1717 14.2109 15.7896 13.9525 16.4352 13.9487C17.0805 13.9519 17.6986 14.2092 18.1556 14.6648C18.6126 15.1204 18.8718 15.7378 18.8769 16.3831C18.873 17.0283 18.6153 17.646 18.1596 18.1028C17.7039 18.5595 17.0867 18.8185 16.4415 18.8238Z" fill="#00D970"/>
</svg>
