<svg width="14" height="24" viewBox="0 0 14 24" fill="none" xmlns="http://www.w3.org/2000/svg">
<path d="M3.33994 20.7001C3.23327 20.7001 3.13994 20.66 3.05994 20.58C2.97994 20.5 2.93994 20.4067 2.93994 20.3C2.93994 20.2334 2.95994 20.1534 2.99994 20.0601L9.87994 3.60005C9.90661 3.54672 9.95328 3.48672 10.0199 3.42005C10.0866 3.34005 10.1866 3.30005 10.3199 3.30005H10.6599C10.7666 3.30005 10.8599 3.34005 10.9399 3.42005C11.0199 3.50005 11.0599 3.59338 11.0599 3.70005C11.0599 3.75338 11.0399 3.83338 10.9999 3.94005L4.11994 20.4001C4.10661 20.4534 4.05994 20.5134 3.97994 20.58C3.91327 20.66 3.81327 20.7001 3.67994 20.7001H3.33994Z" fill="#00D970"/>
</svg>
