<svg width="9" height="18" viewBox="0 0 9 18" fill="none" xmlns="http://www.w3.org/2000/svg">
<path d="M0.940039 17.68C0.833372 17.68 0.740039 17.64 0.660039 17.56C0.580039 17.48 0.540039 17.3867 0.540039 17.28C0.540039 17.2134 0.560039 17.1334 0.600039 17.04L7.48004 0.580029C7.50671 0.526696 7.55337 0.466696 7.62004 0.400029C7.68671 0.320029 7.78671 0.280029 7.92004 0.280029H8.26004C8.36671 0.280029 8.46004 0.320029 8.54004 0.400029C8.62004 0.480029 8.66004 0.573362 8.66004 0.680029C8.66004 0.733362 8.64004 0.813363 8.60004 0.920029L1.72004 17.38C1.70671 17.4334 1.66004 17.4934 1.58004 17.56C1.51337 17.64 1.41337 17.68 1.28004 17.68H0.940039Z" fill="#00D970"/>
</svg>
