<svg width="48" height="48" viewBox="0 0 48 48" fill="none" xmlns="http://www.w3.org/2000/svg">
<path d="M8.5 0H39.5C44.2 0 48 3.89744 48 8.71795V39.2821C48 44.1026 44.2 48 39.5 48H8.5C3.8 48 0 44.1026 0 39.2821V8.71795C0 3.89744 3.8 0 8.5 0Z" fill="#001E36"/>
<path fill-rule="evenodd" clip-rule="evenodd" d="M10 13.4439V34.2128C10 34.3944 10.08 34.4751 10.24 34.4751H14.04H14.12C14.26 34.455 14.36 34.3339 14.34 34.1926V27.7137H14.3401C14.72 27.7137 15 27.7137 15.2 27.7339C15.4 27.754 15.72 27.754 16.2 27.754C17.84 27.754 19.34 27.5724 20.7 27.0678C22 26.5834 23.12 25.7357 23.92 24.6054C24.72 23.4751 25.12 22.0421 25.12 20.3063C25.12 19.3981 24.96 18.5302 24.66 17.6825C24.34 16.8146 23.84 16.0274 23.2 15.3816C22.44 14.6348 21.52 14.0696 20.52 13.7265C19.4 13.3027 18.04 13.1008 16.4 13.1008C15.8 13.1008 15.2 13.1008 14.58 13.121C14.2807 13.1308 13.9907 13.1358 13.71 13.1407C13.4093 13.1459 13.1193 13.1509 12.84 13.1614C12.5781 13.1712 12.3256 13.1762 12.0802 13.1811C11.8197 13.1863 11.5672 13.1914 11.32 13.2017C10.86 13.2219 10.54 13.2219 10.2 13.2219C10.06 13.2219 10 13.3027 10 13.4439ZM14.36 23.899V17.1173C14.5 17.0972 14.78 17.077 15.18 17.0972C15.56 17.077 16.02 17.077 16.54 17.077C17.36 17.0568 18.16 17.1779 18.9 17.4806C19.48 17.7027 19.96 18.1063 20.3 18.6311C20.62 19.1761 20.78 19.8017 20.76 20.4274C20.76 21.3155 20.56 22.0017 20.14 22.5063C19.7 23.0109 19.14 23.3944 18.5 23.5761C17.76 23.8183 16.98 23.9394 16.2 23.9394H15.14C14.9172 23.9394 14.6772 23.922 14.42 23.9033C14.4001 23.9019 14.3801 23.9004 14.36 23.899Z" fill="#31A8FF"/>
<path d="M37.6 22.6679C37 22.345 36.36 22.123 35.68 21.9817C34.94 21.8202 34.2 21.7193 33.44 21.7193C33.04 21.6991 32.62 21.7597 32.24 21.8606C31.98 21.9211 31.76 22.0624 31.62 22.2642C31.52 22.4257 31.46 22.6275 31.46 22.8092C31.46 22.9908 31.54 23.1725 31.66 23.334C31.84 23.556 32.08 23.7376 32.34 23.8789C32.8 24.1211 33.28 24.3431 33.76 24.545C34.84 24.9083 35.88 25.4129 36.84 26.0184C37.5 26.4422 38.04 27.0074 38.42 27.6936C38.74 28.3395 38.9 29.0459 38.88 29.7725C38.9 30.7211 38.62 31.6697 38.1 32.4569C37.54 33.2642 36.76 33.8899 35.86 34.2532C34.88 34.6771 33.68 34.8991 32.24 34.8991C31.32 34.8991 30.42 34.8184 29.52 34.6367C28.82 34.5156 28.12 34.2936 27.48 33.9908C27.34 33.9101 27.24 33.7688 27.26 33.6074V30.0954C27.26 30.0349 27.28 29.9542 27.34 29.9138C27.4 29.8734 27.46 29.8936 27.52 29.934C28.3 30.3982 29.12 30.7211 30 30.923C30.76 31.1248 31.56 31.2257 32.36 31.2257C33.12 31.2257 33.66 31.1248 34.02 30.9431C34.34 30.8019 34.56 30.4587 34.56 30.0954C34.56 29.8129 34.4 29.5505 34.08 29.2881C33.76 29.0257 33.1 28.723 32.12 28.3395C31.1 27.9762 30.16 27.4918 29.28 26.8863C28.66 26.4422 28.14 25.8569 27.76 25.1707C27.44 24.5248 27.28 23.8184 27.3 23.1119C27.3 22.2441 27.54 21.4165 27.98 20.6697C28.48 19.8624 29.22 19.2165 30.08 18.8129C31.02 18.3285 32.2 18.1064 33.62 18.1064C34.44 18.1064 35.28 18.167 36.1 18.2881C36.7 18.3688 37.28 18.5303 37.82 18.7523C37.9 18.7725 37.98 18.8532 38.02 18.934C38.04 19.0147 38.06 19.0954 38.06 19.1762V22.4661C38.06 22.5468 38.02 22.6275 37.96 22.6679C37.78 22.7083 37.68 22.7083 37.6 22.6679Z" fill="#31A8FF"/>
</svg>
