<svg width="48" height="48" viewBox="0 0 48 48" fill="none" xmlns="http://www.w3.org/2000/svg">
<path d="M8.5 0H39.5C44.2 0 48 3.89744 48 8.71795V39.2821C48 44.1026 44.2 48 39.5 48H8.5C3.8 48 0 44.1026 0 39.2821V8.71795C0 3.89744 3.8 0 8.5 0Z" fill="#330000"/>
<path fill-rule="evenodd" clip-rule="evenodd" d="M17.0649 30.1026H24.5604L26.2127 34.6557C26.253 34.7896 26.394 34.8852 26.5351 34.8661H30.7463C30.9477 34.8661 31.0082 34.7705 30.9477 34.56L23.5933 14.8557C23.5731 14.76 23.4925 14.7026 23.3313 14.7026H18.1731H18.1127C18.0119 14.7218 17.9313 14.8174 17.9515 14.9131C17.9515 15.3339 17.9112 15.7548 17.8306 16.1565C17.7735 16.3192 17.7265 16.4722 17.6825 16.6157C17.6643 16.6747 17.6467 16.7321 17.6291 16.7879L11.141 34.5218C11.0806 34.7513 11.141 34.8661 11.3627 34.8661H15.1507C15.3321 34.8852 15.4933 34.7705 15.5336 34.5983L17.0649 30.1026ZM23.3515 26.2192H18.2336C18.5358 25.4157 18.838 24.5166 19.1201 23.5409C19.3197 22.9487 19.5116 22.3566 19.7005 21.7735C19.8168 21.4147 19.9319 21.0594 20.047 20.7096C20.3291 19.887 20.5507 19.0644 20.7321 18.2418H20.7724C20.851 18.4977 20.9296 18.7656 21.0117 19.0453C21.0769 19.2673 21.1443 19.4969 21.2157 19.7339C21.3769 20.2887 21.5582 20.8435 21.7597 21.4365C21.8604 21.7331 21.9561 22.0248 22.0519 22.3165C22.1476 22.6083 22.2433 22.9 22.344 23.1965C22.5254 23.7705 22.7067 24.3252 22.888 24.8418C23.0694 25.3392 23.2306 25.8174 23.3515 26.2192Z" fill="#FF9A00"/>
<path fill-rule="evenodd" clip-rule="evenodd" d="M33.547 17.3043C34.0306 17.7443 34.6754 17.993 35.3403 17.9739C36.0254 18.0121 36.7105 17.7634 37.1739 17.3043C37.6575 16.826 37.8993 16.1947 37.8791 15.5443C37.8993 14.913 37.6575 14.3008 37.2142 13.8417C36.7709 13.4017 36.1664 13.1721 35.3806 13.1721C34.7157 13.1721 34.0709 13.4017 33.5873 13.8417C33.1037 14.2817 32.8418 14.8939 32.8619 15.5443C32.8418 16.1947 33.0836 16.826 33.547 17.3043ZM33.0836 19.8486V34.5791C33.0836 34.7704 33.1843 34.8852 33.3858 34.8852H37.3351C37.5164 34.8852 37.597 34.7895 37.597 34.5791V19.8486C37.597 19.6765 37.5164 19.5808 37.3351 19.5808H33.3455C33.1642 19.5808 33.0836 19.6573 33.0836 19.8486Z" fill="#FF9A00"/>
</svg>
