<svg width="48" height="48" viewBox="0 0 48 48" fill="none" xmlns="http://www.w3.org/2000/svg">
<rect width="48" height="48" rx="10" fill="#333333"/>
<path d="M19 39C21.7614 39 24 36.7614 24 34V29H19C16.2386 29 14 31.2386 14 34C14 36.7614 16.2386 39 19 39Z" fill="#0ACF83"/>
<path d="M14 24C14 21.2386 16.2386 19 19 19H24V29H19C16.2386 29 14 26.7614 14 24Z" fill="#A259FF"/>
<path d="M14 14C14 11.2386 16.2386 9 19 9H24V19H19C16.2386 19 14 16.7614 14 14Z" fill="#F24E1E"/>
<path d="M24 9H29C31.7614 9 34 11.2386 34 14C34 16.7614 31.7614 19 29 19H24V9Z" fill="#FF7262"/>
<path d="M34 24C34 26.7614 31.7614 29 29 29C26.2386 29 24 26.7614 24 24C24 21.2386 26.2386 19 29 19C31.7614 19 34 21.2386 34 24Z" fill="#1ABCFE"/>
</svg>
